<svg width="20" height="23" viewBox="0 0 20 23" fill="none" xmlns="http://www.w3.org/2000/svg">
<path d="M17.1429 1.42859H2.85714C1.27902 1.42859 0 2.70761 0 4.28573V18.5714C0 20.1496 1.27902 21.4286 2.85714 21.4286H17.1429C18.721 21.4286 20 20.1496 20 18.5714V4.28573C20 2.70761 18.7188 1.42859 17.1429 1.42859ZM15.6964 14.3527L15.1777 16.6023C15.1048 16.9203 14.825 17.1429 14.4973 17.1429C8.86786 17.1429 4.2875 12.5625 4.2875 6.92859C4.2875 6.60145 4.51 6.32189 4.82812 6.24912L7.07723 5.72993C7.40509 5.6539 7.74152 5.82408 7.87768 6.13448L8.91652 8.5577C9.0379 8.84301 8.95593 9.17511 8.71598 9.37109L7.51339 10.3572C8.27188 11.9023 9.52857 13.1585 11.0746 13.9174L12.0576 12.7161C12.2515 12.4754 12.5866 12.3924 12.8719 12.5159L15.2933 13.5539C15.6027 13.6875 15.7723 14.0268 15.6964 14.3527Z" fill="#B2784A"/>
</svg>
