<svg width="25" height="32" viewBox="0 0 25 32" fill="none" xmlns="http://www.w3.org/2000/svg">
<g clip-path="url(#clip0_4673_91)">
<path d="M11.4943 31.8965C17.2076 31.8965 21.8391 31.3497 21.8391 30.6752C21.8391 30.0008 17.2076 29.454 11.4943 29.454C5.78096 29.454 1.14941 30.0008 1.14941 30.6752C1.14941 31.3497 5.78096 31.8965 11.4943 31.8965Z" fill="#B2784A"/>
<path fill-rule="evenodd" clip-rule="evenodd" d="M22.1135 23.2081C22.6912 21.7264 22.9885 20.1383 22.9885 18.5345H21.1782C21.1782 19.893 20.9284 21.2383 20.4432 22.4933C19.958 23.7485 19.2468 24.8888 18.3503 25.8495C17.4536 26.8101 16.3892 27.572 15.2178 28.0919C14.0464 28.6118 12.7909 28.8794 11.523 28.8794C10.2551 28.8794 8.99952 28.6118 7.82811 28.0919C6.65669 27.572 5.59231 26.8101 4.69574 25.8495C3.79918 24.8888 3.08799 23.7485 2.60277 22.4933C2.11756 21.2383 1.86782 19.893 1.86782 18.5345H0C0 20.1383 0.297307 21.7264 0.874946 23.2081C1.45259 24.6899 2.29925 26.0361 3.36659 27.1702C4.43392 28.3042 5.70105 29.2038 7.09559 29.8176C8.49014 30.4312 9.98479 30.7472 11.4942 30.7472C13.0037 30.7472 14.4984 30.4312 15.893 29.8176C17.2875 29.2038 18.5546 28.3042 19.622 27.1702C20.6892 26.0361 21.5359 24.6899 22.1135 23.2081Z" fill="#B2784A"/>
<path fill-rule="evenodd" clip-rule="evenodd" d="M19.4994 22.1084C19.9282 20.9995 20.1533 19.8127 20.1626 18.613C19.1766 18.7677 17.0231 19.1449 15.5892 19.684C14.4504 20.1121 13.6752 20.8538 12.9327 21.5643C11.9691 22.4863 11.0604 23.3558 9.48287 23.4196C8.22925 23.4703 7.46256 23.3676 6.32194 22.8449C4.32993 21.9321 2.72998 18.5345 2.72998 18.5345C2.72998 19.761 2.95544 20.9753 3.39349 22.1084C3.83153 23.2416 4.47358 24.271 5.28299 25.1383C6.09239 26.0055 7.05328 26.6934 8.11081 27.1627C9.16836 27.6321 10.3018 27.8736 11.4465 27.8736C12.5911 27.8736 13.7246 27.6321 14.7822 27.1627C15.8396 26.6934 16.8006 26.0055 17.6099 25.1383C18.4194 24.271 19.0615 23.2416 19.4994 22.1084Z" fill="#8F542E"/>
<path fill-rule="evenodd" clip-rule="evenodd" d="M23.882 21.0737C23.5396 20.7347 23.1307 20.4707 22.6812 20.2981L21.4342 23.5464L19.6592 26.539C20.0734 26.7847 20.5342 26.9418 21.0123 27.0001C21.4904 27.0586 21.9754 27.0171 22.4366 26.8783C22.8978 26.7395 23.3253 26.5064 23.6918 26.1939C24.0583 25.8814 24.3559 25.4962 24.5658 25.0627C24.7757 24.6293 24.8934 24.1569 24.9112 23.6755C24.9292 23.1942 24.8468 22.7145 24.6697 22.2666C24.4925 21.8186 24.2243 21.4125 23.882 21.0737ZM23.0409 22.164C22.8401 21.9652 22.6 21.8102 22.3361 21.7089L21.6042 23.6156L20.5622 25.3722C20.8054 25.5165 21.0758 25.6086 21.3565 25.6429C21.6372 25.6771 21.9218 25.6528 22.1925 25.5714C22.4634 25.4899 22.7142 25.3531 22.9293 25.1696C23.1445 24.9863 23.3192 24.7602 23.4424 24.5057C23.5656 24.2513 23.6346 23.974 23.6451 23.6915C23.6556 23.4089 23.6073 23.1273 23.5033 22.8643C23.3994 22.6014 23.2419 22.363 23.0409 22.164Z" fill="#B2784A"/>
<path d="M8.33403 4.3103C8.33403 4.3103 7.97221 6.50419 8.33403 7.83041C8.93073 10.0175 11.7998 9.97141 12.1415 12.2126C12.4587 14.2934 10.2018 17.2413 10.2018 17.2413C10.2018 17.2413 10.5462 15.1804 10.2018 13.9367C9.6292 11.8688 7.01536 11.9339 6.53806 9.8419C6.03286 7.62756 8.33403 4.3103 8.33403 4.3103Z" fill="#8F542E"/>
<path d="M9.48262 6.60918C8.72351 4.00266 11.6378 0 11.6378 0C11.6378 0 10.5027 3.52468 11.2068 5.60344C11.9454 7.78431 14.7286 7.66642 15.2297 9.91377C15.8175 12.5495 12.428 16.2356 12.428 16.2356C12.428 16.2356 14.1634 12.8745 13.5774 10.7758C12.9639 8.57846 10.1205 8.79961 9.48262 6.60918Z" fill="#8F542E"/>
</g>
<defs>
<clipPath id="clip0_4673_91">
<rect width="25" height="31.8965" fill="white"/>
</clipPath>
</defs>
</svg>
